<?xml version="1.0" encoding="utf-8"?><!-- Uploaded to: SVG Repo, www.svgrepo.com, Generator: SVG Repo Mixer Tools -->
<svg width="24px" height="24px" viewBox="-5.07 0 43.012 43.012" xmlns="http://www.w3.org/2000/svg">
  <path id="location" d="M406.185,260.012c-18.028-13.493-16.233-28.572-16.233-28.572h11.184a4.7,4.7,0,0,0-.142,1.1,5.378,5.378,0,0,0,.466,2.1,7.353,7.353,0,0,0,2.622,2.615,5,5,0,0,0,4.218,0,7.316,7.316,0,0,0,2.619-2.615,5.4,5.4,0,0,0,.465-2.105,4.728,4.728,0,0,0-.141-1.1h11.5S424.217,246.277,406.185,260.012Zm4.731-29.576a7.353,7.353,0,0,0-2.619-2.618,4.977,4.977,0,0,0-4.211,0,7.389,7.389,0,0,0-2.622,2.618,6.468,6.468,0,0,0-.326,1H389.966c0-7.972,7.335-14.435,16.383-14.435s16.383,6.463,16.383,14.435H411.242A6.523,6.523,0,0,0,410.915,230.436Z" transform="translate(-389.902 -217)" fill="#2d5be2"/>
</svg>