<svg width="24" height="24" viewBox="0 0 24 24" fill="none" xmlns="http://www.w3.org/2000/svg">
<path d="M22.6368 10.187L19.8 9.72334C19.6339 9.15406 19.4069 8.60686 19.1227 8.08894L20.7787 5.72878C20.9126 5.53822 20.8896 5.27854 20.7249 5.11342L18.8582 3.24766C18.6917 3.08158 18.4296 3.05998 18.2385 3.19774L15.9139 4.86862C15.3912 4.57966 14.8392 4.35022 14.2665 4.18366L13.7717 1.35838C13.7313 1.12894 13.5321 0.960938 13.2989 0.960938H10.6589C10.4237 0.960938 10.223 1.13134 10.1851 1.36366L9.72622 4.17358C9.15022 4.33918 8.59726 4.56622 8.07646 4.85134L5.75806 3.19534C5.56654 3.05854 5.3059 3.08062 5.13934 3.24622L3.27358 5.11198C3.10894 5.27662 3.0859 5.53582 3.21982 5.72638L4.85134 8.06062C4.56094 8.58622 4.32958 9.14254 4.1611 9.72142L1.36222 10.1875C1.13086 10.2259 0.960938 10.4265 0.960938 10.6608V13.3008C0.960938 13.5336 1.12798 13.7328 1.35694 13.7736L4.15582 14.2699C4.32334 14.8473 4.5547 15.4037 4.84606 15.9307L3.19438 18.2409C3.05806 18.4315 3.07966 18.6931 3.24526 18.8597L5.1115 20.7273C5.27614 20.892 5.53582 20.915 5.72638 20.7811L8.06398 19.1438C8.58862 19.4323 9.14302 19.6613 9.71758 19.8273L10.1861 22.6406C10.224 22.8715 10.4241 23.0409 10.6589 23.0409H13.2989C13.5317 23.0409 13.7309 22.8739 13.7712 22.6449L14.2728 19.8177C14.8483 19.6483 15.3998 19.4179 15.9192 19.1289L18.2736 20.7806C18.4646 20.9155 18.7238 20.892 18.8889 20.7273L20.7552 18.8597C20.9213 18.6931 20.9429 18.4305 20.8051 18.2395L19.1261 15.9081C19.4107 15.3897 19.6368 14.8416 19.8014 14.2723L22.6421 13.7736C22.872 13.7333 23.039 13.5336 23.039 13.3008V10.6608C23.0395 10.4256 22.8691 10.2249 22.6368 10.187ZM12 15.3609C10.1443 15.3609 8.63998 13.8566 8.63998 12.0009C8.63998 10.1453 10.1443 8.64094 12 8.64094C13.8557 8.64094 15.36 10.1453 15.36 12.0009C15.36 13.8566 13.8557 15.3609 12 15.3609Z" fill="black"/>
</svg>
