<?xml version="1.0" encoding="iso-8859-1"?>
<!-- Uploaded to: SVG Repo, www.svgrepo.com, Generator: SVG Repo Mixer Tools -->
<svg version="1.1" id="Layer_1" xmlns="http://www.w3.org/2000/svg" xmlns:xlink="http://www.w3.org/1999/xlink" 
	 viewBox="0 0 504.113 504.113" xml:space="preserve">
<ellipse style="fill:#D3C5CC;" cx="274.513" cy="428.857" rx="229.6" ry="13.6"/>
<path style="fill:#EF3388;" d="M341.713,232.057c35.2,35.2,16,152.8-71.2,182.4c-63.2,21.6-255.2,32.8-267.2-6.4
	c-14.4-48,12.8,85.6,188.8-154.4C231.313,199.257,306.513,196.857,341.713,232.057z"/>
<path style="fill:#BC086B;" d="M336.113,244.057c35.2,35.2,21.6,140.8-66.4,170.4c-63.2,21.6-255.2,32.8-267.2-6.4
	c-14.4-48,51.2,110.4,227.2-130.4C269.713,224.057,300.913,208.857,336.113,244.057z"/>
<path style="fill:#A0005F;" d="M336.113,244.057c35.2,35.2,21.6,140.8-66.4,170.4"/>
<path style="fill:#2E9BCC;" d="M500.113,61.657h-67.2l-108.8,124c-7.2,7.2-7.2,19.2,0,26.4l28.8,29.6c7.2,7.2,19.2,7.2,26.4,0
	l120.8-107.2V61.657z"/>
<path style="fill:#207EB7;" d="M325.713,215.257l28,25.6c7.2,7.2,19.2,7.2,26.4,0.8l120-106.4v-73.6h-64"/>
<path style="fill:#0E6BAA;" d="M353.713,240.057c7.2,7.2,19.2,8,26.4,0.8l120-106.4v-72.8"/>
<rect x="304.049" y="200.341" transform="matrix(-0.7072 -0.707 0.707 -0.7072 430.1652 622.8253)" style="fill:#F4CD27;" width="79.999" height="44"/>
<rect x="318.327" y="206.306" transform="matrix(-0.707 -0.7072 0.7072 -0.707 435.1849 636.9079)" style="fill:#EDB811;" width="62.399" height="44"/>
</svg>